<svg width="512" height="512" viewBox="0 0 24 24" fill="none" xmlns="http://www.w3.org/2000/svg">
  <path d="M21 11.5C21.0031 12.8199 20.6951 14.1272 20.1039 15.3128C19.5127 16.4984 18.6567 17.5268 17.6094 18.3097C16.5621 19.0927 15.3553 19.6067 14.0936 19.8071C12.8318 20.0075 11.5532 19.888 10.368 19.46L6 21L7.54 16.6C6.62663 15.6865 5.9686 14.5458 5.62635 13.2829C5.28411 12.0201 5.26842 10.6756 5.58071 9.3725C5.89299 8.06941 6.52336 6.84918 7.41402 5.82345C8.30468 4.79772 9.42777 4.00001 10.681 3.50346C12.2882 2.86656 14.0722 2.81267 15.7197 3.35128C17.3672 3.88989 18.7712 4.98634 19.6841 6.44754C20.597 7.90875 20.9602 9.63973 20.7099 11.3338" stroke="#112D4E" stroke-width="1.5" stroke-linecap="round" stroke-linejoin="round"/>
  <path d="M12 8L13.12 10.62L16 10.86L13.8 12.75L14.47 15.5L12 14L9.53 15.5L10.2 12.75L8 10.86L10.88 10.62L12 8Z" stroke="#112D4E" stroke-width="1.5" stroke-linecap="round" stroke-linejoin="round"/>
</svg>